# xmcd
#
# Track frame offsets: 
#        150
#        14134
#        26741
#        38879
#        54202
#        68280
#        81922
#        94757
#        108132
#        119527
#        132459
#        147173
#        158065
#        171401
#        185195
#        198480
#        211291
#        225633
#
# Disc length: 3191 seconds
#
# Revision: 1
# Processed by: cddbd v1.5.2PL0 Copyright (c) Steve Scherf et al.
# Submitted via: ExactAudioCopy v0.95b2
#
DISCID=fd0c7512
DTITLE=Johnny Temple - The Essential Johnny Temple Disc 1
DYEAR=1900
DGENRE=Blues
TTITLE0=Lead Pencil Blues
TTITLE1=New Vicksburg Blues
TTITLE2=When the Breath Bids Your Girl Friend's Body Goodbye
TTITLE3=Big Boat Whistle
TTITLE4=The Evil Devil Blues
TTITLE5=Gimme Some of That Yum Yum Yum
TTITLE6=Stick Up Woman
TTITLE7=Louise Louise Blues
TTITLE8=Snapping Cat
TTITLE9=Jelly Roll Bert
TTITLE10=Bowleg Woman
TTITLE11=Peepin' Through the Keyhole
TTITLE12=Good Suzie (Rusty Knees)
TTITLE13=My Pony
TTITLE14=Corrina Corrina
TTITLE15=Evil Bad Woman Blues
TTITLE16=Baby Don't You Love Me No More
TTITLE17=Every Dog Must Have His Day
EXTD=
EXTT0=
EXTT1=
EXTT2=
EXTT3=
EXTT4=
EXTT5=
EXTT6=
EXTT7=
EXTT8=
EXTT9=
EXTT10=
EXTT11=
EXTT12=
EXTT13=
EXTT14=
EXTT15=
EXTT16=
EXTT17=
PLAYORDER=
